<svg id="bear" xmlns="http://www.w3.org/2000/svg" width="256" height="256" viewBox="0 0 256 256"><title>Artboard 1</title><g id="left-ear"><circle id="left-ear-2" data-name="left-ear" cx="43.9" cy="49.2" r="34.6" fill="#673200"/><circle id="left-ear-3" data-name="left-ear" cx="46.4" cy="58" r="14.8" fill="#ffaaca"/></g><g id="right-ear"><circle id="right-ear-2" data-name="right-ear" cx="212.1" cy="49.2" r="34.6" fill="#673200"/><circle id="right-ear-3" data-name="right-ear" cx="209.6" cy="58" r="14.8" fill="#ffaaca"/></g><g id="face"><circle id="face-2" data-name="face" cx="128" cy="133.2" r="108.1" fill="#673200"/><path id="face-3" data-name="face" d="M174,35.4a65.6,65.6,0,0,0,41.9,116.1,63.6,63.6,0,0,0,19.1-2.9,110.5,110.5,0,0,0,1.1-15.4A108,108,0,0,0,174,35.4Z" fill="#c65b00"/><path id="face-4" data-name="face" d="M19.9,133.2A110.5,110.5,0,0,0,21,148.6a63.6,63.6,0,0,0,19.1,2.9A65.6,65.6,0,0,0,82,35.4,108,108,0,0,0,19.9,133.2Z" fill="#c65b00"/></g><g id="nose"><circle id="nose-2" data-name="nose" cx="128" cy="172.7" r="42.3" fill="#c65b00"/><path id="nose-3" data-name="nose" d="M101.2,187.1a37.2,37.2,0,0,0,52.7,0" fill="none" stroke="#000" stroke-linecap="round" stroke-linejoin="round" stroke-width="3"/><circle id="nose-4" data-name="nose" cx="128" cy="138.1" r="13" fill="#ffaaca"/></g><circle id="left-eye" cx="84.8" cy="106.5" r="9.3"/><circle id="right-eye" cx="171.2" cy="106.5" r="9.3"/></svg>